<?xml version="1.0" encoding="UTF-8"?><svg id="Camada_1" xmlns="http://www.w3.org/2000/svg" viewBox="0 0 889.59 723.91"><defs><style>.cls-1,.cls-2{fill:#c1bdb6;}.cls-3{stroke-width:5.49px;}.cls-3,.cls-4,.cls-5,.cls-6,.cls-7,.cls-8,.cls-9,.cls-10,.cls-2,.cls-11,.cls-12,.cls-13,.cls-14,.cls-15,.cls-16{stroke-linecap:round;}.cls-3,.cls-4,.cls-5,.cls-6,.cls-7,.cls-8,.cls-9,.cls-11,.cls-12,.cls-17,.cls-13,.cls-14,.cls-16{stroke:#000;}.cls-3,.cls-4,.cls-6,.cls-18,.cls-7,.cls-8,.cls-9,.cls-10,.cls-2,.cls-11,.cls-12,.cls-13,.cls-14,.cls-15,.cls-16{stroke-linejoin:round;}.cls-3,.cls-19,.cls-8,.cls-9,.cls-12{fill:#fff;}.cls-4{stroke-width:6.05px;}.cls-4,.cls-5,.cls-7,.cls-10,.cls-13,.cls-15,.cls-16{fill:none;}.cls-5,.cls-20,.cls-9,.cls-13,.cls-14{stroke-width:9px;}.cls-5,.cls-20,.cls-17{stroke-miterlimit:10;}.cls-20{stroke:#d9d4c9;}.cls-20,.cls-21{fill:#d9d4c9;}.cls-6,.cls-22,.cls-11{fill:#efece8;}.cls-6,.cls-12{stroke-width:7.58px;}.cls-18{stroke:#1d1d1b;}.cls-18,.cls-7,.cls-8,.cls-10,.cls-2{stroke-width:5px;}.cls-18,.cls-23{fill:#969696;}.cls-10,.cls-2,.cls-15{stroke:#c1bdb6;}.cls-11{stroke-width:8px;}.cls-17{stroke-width:.87px;}.cls-15{stroke-width:4.31px;}.cls-16{stroke-width:8.56px;}.cls-24{fill:#0a72cc;}</style></defs><path class="cls-22" d="M789.54,723.91V263.13c0-15.48-12.55-28.03-28.03-28.03H83.27c-15.48,0-28.03,12.55-28.03,28.03v460.78H789.54Z"/><polygon class="cls-19" points="661.43 484.29 592.33 617.91 611.39 628.29 683.22 491.14 661.43 484.29"/><path class="cls-19" d="M128.18,723.91l50.65-205.96s-43-3.47-68.13,77.36c-11.16,35.89-25.84,85.04-38.72,128.61h56.19Z"/><path class="cls-24" d="M339.59,723.91l-13.23-28.68,5.8-3.82,37.65,32.5h342.29l61.8-193.65-97.23-39.13-66.6,129.42-96.31-100.35c-17.62-18.41-70.89-18.89-96.3-16.98l-37.97,2.76-122.74,2.23-62.92,5.43c-34.39,2.5-43.09,22.96-53.22,55.92l-47.97,154.33h246.95Z"/><polygon class="cls-21" points="252.53 624.25 268.05 718.42 443.55 718.42 421.84 596.57 252.53 624.25"/><path d="M290.02,723.91h9.14l-17.61-98.84,135.36-24.11,21.9,122.95h9.14l-22.97-128.96c-.21-1.17-.88-2.22-1.86-2.9-.98-.68-2.19-.95-3.36-.74l-144.22,25.69c-2.45,.44-4.08,2.77-3.64,5.22l18.11,101.69Z"/><path d="M265.46,723.91h9.14l-16.85-94.6,139.79-24.9c2.45-.44,4.08-2.77,3.64-5.22-.44-2.45-2.78-4.07-5.22-3.64l-144.22,25.69c-1.18,.21-2.22,.88-2.9,1.86-.68,.98-.95,2.19-.74,3.36l17.36,97.45Z"/><path class="cls-14" d="M269.34,463.45l157.19-138.78s55.2-119.08-79.6-149.76c-31.69-7.21-80.95,1.83-120.16,34.95-70.5,59.54-38.36,172-40.47,211.05-2.36,43.43-26.04,57.1-26.04,57.1,59.57,43.39,110.51-2.41,108.77-12.31"/><path class="cls-9" d="M322.69,459.1c14.87,4.18,31.03,4.48,47,.07,46.64-12.9,73.99-61.17,61.09-107.81l-21.75-78.63h0c-35.86,22.85-100.51,2.87-122.08-6.71h0c5.17,58.96-33.46,93.15-33.46,93.15l-2.76-1.42c-.41-.11-.81-.23-1.23-.31-12.99-2.61-25.63,5.8-28.24,18.79-2.61,12.99,5.8,25.63,18.79,28.24,8.21,1.65,16.28-1.12,21.76-6.65l.07,.25c2.73,9.88,7.06,18.9,12.61,26.85l.08,1.09-13.63,87.63,79.03,62.72,58.12-73.31-16-48.35"/><polygon class="cls-18" points="412.4 661.01 308.94 679.44 307.1 642.4 297.6 635.44 404.45 616.41 412.4 661.01"/><path class="cls-16" d="M398.08,503.07l57.71-2.64c25.41-1.91,50.35,7.66,67.97,26.07l73.66,76.97"/><path class="cls-21" d="M185.28,719.36l-20.78-34.03c-3.66-6.74,.12-15.11,7.6-16.81l126.26-28.33c7.3-1.66,14.24,3.94,14.15,11.43l-1.81,37.96-125.42,29.79Z"/><path class="cls-19" d="M429.17,723.91c9.6-9.14,18.1-19.54,23.66-31.03,0,0,3.39-6.72-2.44-6.69-.16,0-2.37,.63-3.95,1.09-.61,.18-1.15-.45-.87-1.02,1.37-2.82,4.23-8.92,4.33-10.87,.12-2.19-.13-4.6-3.23-6.09-1.91-.92-3.86-1.23-7.3,1.16,0,0,3-5.67,2.89-7.14-.39-5.09-2.8-5.26-4.93-5.79-1.44-.36-4,1.43-4,1.43,0,0-29.76,23.45-58.72,32.02,0,0-8.04,1.31-2.61-7.94,2.38-4.05,5.21-7.79,7.83-11.68,1.85-2.74,3.82-6.33,2.04-9.6-2.25-4.11-8.6,1.22-10.84,2.83-5.82,4.19-11.12,9.12-16.31,14.06-8.45,8.05-16.56,16.45-24.55,24.95l10.44,20.3h88.55Z"/><path class="cls-9" d="M771.76,408.72c-.14,.12-1.56,2.22-2.56,3.73-.39,.59-1.29,.44-1.47-.25-.85-3.36-.67-10.69-1.97-12.41-1.46-1.94-5.41-5.49-9.09-4.55-2.27,.58-6.77,2.29-7.98,6.76,0,0,8.19-51.12,7.87-63.09-.15-5.64-8.23-5.15-10.41-4.08-1.47,.72-4.13,7.03-4.13,7.03,0,0-11.68,32.49-26.85,75.97,0,0-9.18-5.05-9.61-23.15-.09-3.66-2.62-11.06-6.45-12.56-4.83-1.88-6.4,7.16-7.16,10.11-9.23,35.84,2.53,48.87,1.8,61.75l-13.88,34.59,61.01,23.51,13.59-30.5s35.13-30.32,25.91-68.24c0,0-3.71-8.79-8.63-4.62Z"/><path class="cls-7" d="M431.24,680.39s-12.09,14.69-26.68,20.66"/><path class="cls-19" d="M207.55,599.98s-42.29-126.74-198.37-134.51l4.49,16.61,8.88,13.62,185,104.27Z"/><path class="cls-7" d="M436.13,695.23s-11.08,13.02-27.47,21.46"/><path d="M178.29,723.91h23.79l107.4-26.67c1.99-.49,3.39-2.26,3.41-4.31l.55-44.05c.06-4.96-2.11-9.59-5.97-12.7-3.86-3.11-8.84-4.27-13.66-3.17l-126.27,28.33c-4.95,1.13-8.98,4.43-11.08,9.05-2.09,4.62-1.9,9.83,.52,14.29l21.31,39.23Zm-13.63-49.82c.92-2.04,2.7-3.49,4.86-3.98l126.27-28.33c.53-.12,1.06-.18,1.59-.18,1.6,0,3.15,.54,4.43,1.57,1.7,1.37,2.66,3.41,2.63,5.59l-.51,40.57-118.23,29.37-20.81-38.32c-1.07-1.96-1.15-4.26-.23-6.29Z"/><line class="cls-7" x1="185.28" y1="691.68" x2="288.64" y2="667.56"/><path class="cls-19" d="M233.15,579.58s18.39-53.18,67.49-70.04l2.31,1.36-6.48,29.45-63.32,39.23Z"/><path class="cls-23" d="M222.24,626.02c.03-32.78,11.13-88.23,79.92-116.12,1.85-.75,3.88,.92,3.59,2.95-2,14.1-10.86,57.35-46.12,79.93-19.79,12.67-29.1,24.18-33.37,32.94l-.9,1.39c-.8,1.25-2.73,.81-3.04-.7l-.08-.4Z"/><path class="cls-7" d="M276.83,544.86s-35.7,30.18-52.43,89.85"/><ellipse class="cls-17" cx="324.51" cy="339.23" rx="5.63" ry="10.52" transform="translate(-67.53 80.98) rotate(-12.9)"/><ellipse class="cls-17" cx="392.87" cy="323.58" rx="5.63" ry="10.52" transform="translate(-62.31 95.84) rotate(-12.9)"/><path class="cls-7" d="M366.73,327.63l11.81,30.31c2.25,5.78-.53,12.31-6.27,14.68l-10.41,4.3"/><path class="cls-7" d="M382.69,394.2s-16.35,16.32-41.66,4.7"/><path d="M318.87,463.58c7.33,7.11,27.37,21.15,64.49,10.69,.67-.19,1.08-.89,.9-1.57l-4.54-17.18c-.19-.73-.97-1.14-1.68-.87-6.55,2.45-36.18,12.72-57.93,6.78-1.29-.35-2.2,1.22-1.24,2.15Z"/><path class="cls-13" d="M223.79,644.86s-1.93-17.71,32.39-45.25c46.97-37.7,50.49-93.6,50.49-93.6,0,0-84.45,20.09-83.25,133.86"/><path class="cls-5" d="M82.41,425.31C90.96,218.9,258.07,54.23,462.97,54.23c158.95,0,295.15,99.09,352.24,239.89,.76,1.87,1.5,3.74,2.23,5.62,6.04,15.59,9.93,31.92,11.74,48.54,5.84,53.9,10.17,182.94-62.84,284.86"/><g><path d="M82.08,445.39c0-2.69-.05,1.6,0-1.08"/><path d="M82.04,450.23s-.04,0-.06,0c-2.41-.04-4.96-1.89-4.92-5.24,0-.17,0-.33,.02-.49,0-.08,0-.18,0-.29h.02c.48-4.72,4.83-4.79,5-4.75,.78,0,4.48,.27,4.94,4.95h.05c0,.14,0,.27-.02,.41,0,.19,.02,.38,.02,.57h-.06c-.53,4.55-4.08,4.84-4.97,4.84Z"/></g><g><path d="M752.3,646.41c0-2.69-.05,1.6,0-1.08"/><path d="M752.26,651.25s-.04,0-.06,0c-2.41-.04-4.96-1.88-4.93-5.23,0-.17,0-.33,.02-.48,0-.09,0-.19,0-.3h.02c.47-4.68,4.73-4.75,4.99-4.75h0c.78,0,4.48,.27,4.94,4.95h.05c0,.14,0,.27-.02,.4,.01,.19,.02,.38,.02,.58h-.07c-.53,4.55-4.08,4.84-4.97,4.84Z"/></g><g><path class="cls-6" d="M470.81,92.84c-.73,1.85-2.01,3.46-3.73,4.47-2.99,1.76-6.84,1.8-9.96-.21h0c-.94-.69-1.78-1.52-2.48-2.44-14.78-19.36-26.57,2.8-26.57,2.8l-1.45,2.24c-11.44,20.56-37.09,25.13-53.54,11.72-27.21-22.19-18.17-50.85-10.91-63.61,16.57-29.14,55.25-38.15,83.64-20.33,22.28,13.99,32.13,39.31,25.8,63.35l-.8,2.01Z"/><circle class="cls-1" cx="393.19" cy="96.2" r="8.95"/><circle class="cls-21" cx="376.48" cy="69.91" r="8.95"/><circle class="cls-19" cx="393.69" cy="43.31" r="8.95"/><path class="cls-8" d="M430.35,51.45L495.41,3.07c1.21-.9,2.91-.72,3.91,.41h0c1.07,1.22,.94,3.07-.3,4.13l-62.55,53.33"/><path class="cls-12" d="M433.04,65.89c3.47-3.52,3.44-9.18-.08-12.65-3.52-3.47-9.18-3.44-12.65,.08-.58,.59-2.47,3.19-2.47,3.19,0,0-7.72,12.65-13.7,8.79,0,0,11.87,13.77,26.54,2.64,0,0,1.64-1.31,2.36-2.04Z"/></g><polygon class="cls-24" points="340.52 723.91 323.5 691.68 252.53 708.59 255.95 723.91 340.52 723.91"/><g><path class="cls-15" d="M698.58,87.72s-6.79,13.03-20.2,11.63c-13.42-1.4-21.7-20.9-21.7-20.9"/><path class="cls-11" d="M666.66,67.34c.73-5.83-3.4-11.16-9.24-11.89-3.27-.41-6.37,.71-8.6,2.79h-.01c-.04,.05-.08,.1-.13,.14l-76.26,77.02,89.29-60.35c.14-.09,.28-.19,.42-.28l.33-.22h0c2.24-1.68,3.83-4.22,4.21-7.21Z"/><path class="cls-7" d="M644.63,73.13s10.35-1.01,13.71-7.9"/><path class="cls-1" d="M644.04,130.16c3.2-3.48,7.32-6.75,12.5-9.62,.87-.48,1.18-1.57,.7-2.44-.48-.87-1.57-1.18-2.44-.7-5.6,3.1-10.07,6.66-13.54,10.46-2.9-2.31-6.08-4.57-9.55-6.78-24.08-15.31-30.05-34.47-27.6-47.29,1.98-10.37,9.29-17.97,19.07-19.84,19.99-3.82,26.35,10.63,27.84,15.18,.01,.04,.04,.07,.07,.09,.51-.1,1.79-.49,3.05-1.91-2.42-6.21-10.5-20.93-31.64-16.89-11.26,2.15-19.67,10.85-21.93,22.7-1.57,8.22-.06,17.05,4.38,25.54,5.01,9.6,13.36,18.17,24.82,25.45,3.47,2.21,6.52,4.37,9.19,6.47-8,10.42-9.06,22.22-5.56,31.43,2.54,6.67,7.25,11.1,12.21,11.84,1.19,.18,2.39,.14,3.57-.12,6.13-1.37,10.44-5.9,11.53-12.12,1.68-9.62-4.42-20.86-16.68-31.44Zm4.37,40.05c-4.36,.98-9.15-2.92-11.64-9.48-3.08-8.11-2.11-18.53,5-27.86,16.21,13.88,16.01,24.69,15.41,28.1-.83,4.74-4.11,8.19-8.77,9.23Z"/></g><g><path d="M202.19,723.91l117.74-27.57,14.37,27.57h9.66l-17.97-34.48c-.9-1.73-2.87-2.64-4.77-2.19l-156.57,36.67h37.55Z"/><path d="M75.21,723.91l45.9-147.65c9.68-31.49,37.15-53.39,70-55.81l71.62-2.52c2.36-.08,4.21-2.07,4.13-4.43-.08-2.36-2.09-4.22-4.43-4.13l-71.7,2.52c-.05,0-.11,0-.16,0-17.74,1.29-34.47,7.83-48.38,18.91-13.91,11.08-24.03,25.93-29.25,42.91l-46.68,150.17h8.97Z"/></g><g><path class="cls-20" d="M822.96,215.36h-18.58l-7.2-11.73c-2.08-3.39-5.77-5.45-9.75-5.46h-19.66c-3.87,0-7.48,1.95-9.59,5.19l-7.81,11.98h-17.94c-7.58,0-13.72,6.14-13.73,13.72v46.15c0,7.58,6.13,13.72,13.71,13.73h90.53c7.58,.01,13.72-6.13,13.73-13.71v-46.15c0-7.58-6.13-13.72-13.71-13.73Z"/><path class="cls-13" d="M822.96,214.24h-18.58l-7.2-11.73c-2.08-3.39-5.77-5.45-9.75-5.46h-19.66c-3.87,0-7.48,1.95-9.59,5.19l-7.81,11.98h-17.94c-7.58,0-13.72,6.14-13.73,13.72v48.39c0,7.58,6.13,13.72,13.71,13.73h90.53c7.58,.01,13.72-6.13,13.73-13.71v-48.39c0-7.58-6.13-13.72-13.71-13.73Z"/><circle class="cls-3" cx="777.57" cy="251.48" r="23.64"/><circle class="cls-4" cx="777.57" cy="251.48" r="14.11"/><rect class="cls-2" x="810.16" y="226.92" width="11.72" height="5.86"/><line class="cls-10" x1="703.97" y1="298.69" x2="658.72" y2="326.96"/><line class="cls-10" x1="699" y1="288.25" x2="664.6" y2="294.5"/><line class="cls-10" x1="715.97" y1="306.2" x2="706.34" y2="329.65"/><line class="cls-10" x1="844.93" y1="203.76" x2="880.89" y2="172.44"/><line class="cls-10" x1="852.1" y1="216.92" x2="887.09" y2="208.58"/></g><path class="cls-23" d="M214.19,609.37c-19.29-52.65-70.39-135.83-201.62-144.1-3.53-.22-5.93,3.54-4.26,6.65,11.61,21.59,51.8,86.37,123.94,103.92,40.49,9.85,62.79,23.4,75.06,35.19l2.31,1.76c2.08,1.58,5.03-.15,4.66-2.73l-.1-.69Z"/><path class="cls-13" d="M225.08,652.84S205.26,473.18,4.5,465.26c0,0,40.53,89.81,127.5,110.98,88.36,21.5,90.08,60.61,90.08,60.61"/><path class="cls-7" d="M70.49,501.24s117.19,62.9,146.72,118.07"/><g><path d="M572.56,655.28c2.4,1.25,5.36,.33,6.62-2.07l86.31-164.93,85.91,33.1-64.61,202.54h10.3l65.06-203.96c.79-2.47-.49-5.14-2.91-6.07l-94.31-36.33c-2.32-.89-4.95,.09-6.11,2.3l-88.33,168.8c-1.26,2.4-.33,5.37,2.07,6.62Z"/><path d="M467.46,704.62l32.27,19.29h19.12l-46.35-27.71c-2.33-1.39-5.34-.63-6.73,1.69-1.39,2.33-.63,5.34,1.69,6.73Z"/></g><path d="M335.56,723.91h10.12l-10.05-19.52c6.26-6.62,14.08-14.73,22.2-22.46,5.15-4.91,10.24-9.64,15.83-13.67,.23-.16,.49-.36,.79-.58,1.46-1.09,2.63-1.88,3.5-2.36-.24,.89-.86,2.07-1.85,3.54-.81,1.2-1.65,2.39-2.48,3.58-1.86,2.66-3.79,5.41-5.51,8.34-1.05,1.79-4.25,7.24-1.28,11.59,2.03,2.96,5.84,3.5,8.49,3.07,.19-.03,.37-.07,.55-.13,28.74-8.51,57.55-30.71,60.09-32.69,.3-.2,.69-.41,.98-.54,.2,.05,.41,.1,.57,.15,.06,.17,.14,.49,.21,1.01-.29,.95-1.32,3.2-2.34,5.13-.97,1.83-.56,4.1,.99,5.47,1.55,1.38,3.85,1.51,5.55,.33,1.81-1.26,2.18-1.09,2.78-.8,.66,.32,.76,.37,.7,1.7-.14,.72-1.1,3.5-3.89,9.23-.9,1.86-.62,4.09,.71,5.67,1.34,1.58,3.49,2.23,5.47,1.64,.3-.09,.58-.17,.86-.25-5.98,12.15-15.49,23.09-26.08,32.56h13.17c8.54-8.65,16.04-18.35,21.19-29,.68-1.35,2.72-6.04,.37-9.83-.64-1.03-2.03-2.62-4.71-3.19,1.78-4.28,1.85-5.6,1.89-6.27,.26-4.92-1.68-8.41-5.78-10.38-.66-.32-1.31-.57-1.95-.75,.14-.77,.1-1.22,.08-1.52-.61-8.01-5.74-9.21-7.93-9.72l-.4-.1c-2.97-.74-6.07,1-7.65,2.1-.07,.05-.15,.1-.22,.16-.28,.22-27.91,21.84-55.04,30.57,.11-.21,.24-.43,.38-.67,1.54-2.62,3.28-5.11,5.12-7.74,.86-1.23,1.72-2.46,2.57-3.71,1.52-2.25,5.56-8.24,2.26-14.28-1.06-1.93-2.77-3.24-4.83-3.69-4.52-.99-9.16,2.48-11.93,4.54-.25,.18-.47,.35-.66,.49-6.05,4.36-11.39,9.32-16.78,14.46-9.24,8.8-18.07,18.05-24.73,25.12-1.31,1.39-1.6,3.45-.72,5.14l9.38,18.24Z"/></svg>